<mxfile host="65bd71144e">
    <diagram id="88giGpIRES18z8qv4P0Z" name="Page-1">
        <mxGraphModel dx="764" dy="629" grid="1" gridSize="10" guides="1" tooltips="1" connect="1" arrows="1" fold="1" page="1" pageScale="1" pageWidth="850" pageHeight="1100" math="0" shadow="0">
            <root>
                <mxCell id="0"/>
                <mxCell id="1" parent="0"/>
                <mxCell id="2" value="" style="verticalLabelPosition=bottom;verticalAlign=top;html=1;shape=mxgraph.basic.rect;fillColor2=none;strokeWidth=1;size=20;indent=5;fillColor=#FFFFFF;strokeColor=#36393d;" vertex="1" parent="1">
                    <mxGeometry x="90" y="80" width="680" height="830" as="geometry"/>
                </mxCell>
                <mxCell id="3" value="&lt;p style=&quot;line-height: 1.2&quot;&gt;&lt;font style=&quot;font-size: 24px&quot;&gt;&amp;nbsp; Temperature Calculator Website.&lt;/font&gt;&lt;/p&gt;" style="shape=partialRectangle;whiteSpace=wrap;html=1;top=0;left=0;fillColor=#FFFFFF;align=left;fontColor=#000000;strokeColor=#000000;" vertex="1" parent="1">
                    <mxGeometry x="90" y="80" width="680" height="60" as="geometry"/>
                </mxCell>
                <mxCell id="4" value="&lt;h2 style=&quot;padding: 0px ; font-family: &amp;#34;roboto&amp;#34; , &amp;#34;helvetica&amp;#34; , &amp;#34;arial&amp;#34; , sans-serif ; font-weight: 400 ; font-size: 28px ; line-height: 48px ; margin: 24px 0px 24px 30px ; font-style: normal ; letter-spacing: normal ; text-indent: 0px ; text-transform: none ; word-spacing: 0px&quot;&gt;&lt;font color=&quot;#000000&quot;&gt;(°F − 32) × 5/9 = °C&lt;/font&gt;&lt;/h2&gt;" style="text;whiteSpace=wrap;html=1;fontSize=25;" vertex="1" parent="1">
                    <mxGeometry x="125" y="220" width="300" height="110" as="geometry"/>
                </mxCell>
                <mxCell id="5" value="&lt;h1 style=&quot;padding: 0px ; font-size: 35px ; line-height: 1.35 ; letter-spacing: -0.02em ; margin: 24px 0px 24px 40px ; font-family: &amp;#34;roboto&amp;#34; , &amp;#34;helvetica&amp;#34; , &amp;#34;arial&amp;#34; , sans-serif ; font-weight: 400 ; font-style: normal ; text-indent: 0px ; text-transform: none ; word-spacing: 0px&quot;&gt;&lt;font color=&quot;#000000&quot;&gt;The formula is:&lt;/font&gt;&lt;/h1&gt;" style="text;whiteSpace=wrap;html=1;fontSize=25;" vertex="1" parent="1">
                    <mxGeometry x="120" y="140" width="290" height="110" as="geometry"/>
                </mxCell>
                <mxCell id="6" value="&lt;span style=&quot;font-family: &amp;#34;helvetica&amp;#34; , &amp;#34;arial&amp;#34; , sans-serif ; font-size: 14px ; font-style: normal ; font-weight: 400 ; letter-spacing: normal ; text-indent: 0px ; text-transform: none ; word-spacing: 0px ; display: inline ; float: none&quot;&gt;&lt;font color=&quot;#000000&quot;&gt;Fahrenheit:&lt;/font&gt;&lt;/span&gt;" style="text;whiteSpace=wrap;html=1;fontSize=24;" vertex="1" parent="1">
                    <mxGeometry x="125" y="340" width="100" height="50" as="geometry"/>
                </mxCell>
                <mxCell id="7" value="" style="shape=partialRectangle;whiteSpace=wrap;html=1;top=0;left=0;fillColor=none;fontColor=#000000;strokeColor=#000000;" vertex="1" parent="1">
                    <mxGeometry x="125" y="380" width="125" height="10" as="geometry"/>
                </mxCell>
                <mxCell id="8" value="Calculate" style="labelPosition=center;verticalLabelPosition=middle;align=center;html=1;shape=mxgraph.basic.shaded_button;dx=10;fillColor=#E6E6E6;strokeColor=none;fontColor=#000000;" vertex="1" parent="1">
                    <mxGeometry x="125" y="410" width="87.5" height="50" as="geometry"/>
                </mxCell>
                <mxCell id="9" value="" style="verticalLabelPosition=bottom;verticalAlign=top;html=1;shape=mxgraph.basic.rect;fillColor2=none;strokeWidth=1;size=20;indent=5;fillColor=#FFFFFF;strokeColor=#36393d;" vertex="1" parent="1">
                    <mxGeometry x="90" y="80" width="680" height="830" as="geometry"/>
                </mxCell>
                <mxCell id="10" value="&lt;p style=&quot;line-height: 1.2&quot;&gt;&lt;span style=&quot;font-size: 24px&quot;&gt;&amp;nbsp; &amp;nbsp; Randomizer&lt;/span&gt;&lt;/p&gt;" style="shape=partialRectangle;whiteSpace=wrap;html=1;top=0;left=0;fillColor=#FFFFFF;align=left;fontColor=#000000;strokeColor=#000000;" vertex="1" parent="1">
                    <mxGeometry x="90" y="80" width="680" height="60" as="geometry"/>
                </mxCell>
                <mxCell id="11" value="&lt;font face=&quot;helvetica, arial, sans-serif&quot; style=&quot;font-size: 22px&quot;&gt;Pick a random number from 1 to 6&lt;/font&gt;" style="text;whiteSpace=wrap;html=1;fontSize=24;" vertex="1" parent="1">
                    <mxGeometry x="110" y="170" width="360" height="50" as="geometry"/>
                </mxCell>
                <mxCell id="12" value="&lt;font style=&quot;font-size: 19px&quot;&gt;Commit:&lt;/font&gt;" style="text;html=1;resizable=0;autosize=1;align=center;verticalAlign=middle;points=[];fillColor=none;strokeColor=none;rounded=0;fontSize=18;" vertex="1" parent="1">
                    <mxGeometry x="110" y="320" width="90" height="30" as="geometry"/>
                </mxCell>
                <mxCell id="13" value="Button" style="labelPosition=center;verticalLabelPosition=middle;align=center;html=1;shape=mxgraph.basic.shaded_button;dx=10;fillColor=#E6E6E6;strokeColor=none;fontSize=22;" vertex="1" parent="1">
                    <mxGeometry x="110" y="360" width="100" height="60" as="geometry"/>
                </mxCell>
                <mxCell id="14" value="" style="verticalLabelPosition=bottom;verticalAlign=top;html=1;shape=mxgraph.basic.rect;fillColor2=none;strokeWidth=1;size=20;indent=0;fontSize=22;" vertex="1" parent="1">
                    <mxGeometry x="120" y="250" width="440" height="10" as="geometry"/>
                </mxCell>
                <mxCell id="15" value="" style="verticalLabelPosition=bottom;verticalAlign=top;html=1;shape=mxgraph.basic.rect;fillColor2=none;strokeWidth=1;size=20;indent=5;fillColor=#FFFFFF;strokeColor=#36393d;" vertex="1" parent="1">
                    <mxGeometry x="90" y="80" width="680" height="830" as="geometry"/>
                </mxCell>
                <mxCell id="16" value="&lt;p style=&quot;line-height: 1.2&quot;&gt;&lt;span style=&quot;font-size: 24px&quot;&gt;&amp;nbsp; &amp;nbsp;Movie Rate for Different Ages&lt;/span&gt;&lt;/p&gt;" style="shape=partialRectangle;whiteSpace=wrap;html=1;top=0;left=0;fillColor=#FFFFFF;align=left;fontColor=#000000;strokeColor=#000000;" vertex="1" parent="1">
                    <mxGeometry x="90" y="80" width="680" height="60" as="geometry"/>
                </mxCell>
                <mxCell id="17" value="&lt;font color=&quot;#000000&quot; face=&quot;helvetica, arial, sans-serif&quot;&gt;&lt;span style=&quot;font-size: 14px&quot;&gt;Enter your age.&lt;/span&gt;&lt;/font&gt;" style="text;whiteSpace=wrap;html=1;fontSize=24;" vertex="1" parent="1">
                    <mxGeometry x="125" y="310" width="325" height="50" as="geometry"/>
                </mxCell>
                <mxCell id="18" value="" style="shape=partialRectangle;whiteSpace=wrap;html=1;top=0;left=0;fillColor=none;fontColor=#000000;strokeColor=#000000;" vertex="1" parent="1">
                    <mxGeometry x="125" y="360" width="235" height="10" as="geometry"/>
                </mxCell>
                <mxCell id="19" value="" style="verticalLabelPosition=bottom;verticalAlign=top;html=1;shape=mxgraph.basic.patternFillRect;fillStyle=diagGrid;step=5;fillStrokeWidth=0.2;fillStrokeColor=#dddddd;" vertex="1" parent="1">
                    <mxGeometry x="120" y="165" width="230" height="125" as="geometry"/>
                </mxCell>
                <mxCell id="20" value="&lt;font face=&quot;helvetica, arial, sans-serif&quot; color=&quot;#000000&quot;&gt;*IMAGE*&lt;/font&gt;" style="text;whiteSpace=wrap;html=1;fontSize=24;strokeWidth=22;" vertex="1" parent="1">
                    <mxGeometry x="180" y="200" width="155" height="77.5" as="geometry"/>
                </mxCell>
                <mxCell id="21" value="&lt;font style=&quot;font-size: 14px&quot; color=&quot;#000000&quot;&gt;COMMIT&lt;/font&gt;" style="labelPosition=center;verticalLabelPosition=middle;align=center;html=1;shape=mxgraph.basic.shaded_button;dx=10;fontSize=24;" vertex="1" parent="1">
                    <mxGeometry x="130" y="390" width="100" height="40" as="geometry"/>
                </mxCell>
            </root>
        </mxGraphModel>
    </diagram>
</mxfile>